<?xml version="1.0" encoding="utf-8"?>
<!-- Generator: Adobe Illustrator 16.0.0, SVG Export Plug-In . SVG Version: 6.00 Build 0)  -->
<!DOCTYPE svg PUBLIC "-//W3C//DTD SVG 1.1//EN" "http://www.w3.org/Graphics/SVG/1.1/DTD/svg11.dtd">
<svg version="1.1" id="Layer_1" xmlns="http://www.w3.org/2000/svg" xmlns:xlink="http://www.w3.org/1999/xlink" x="0px" y="0px"
	 width="20px" height="20px" viewBox="0 0 20 20" enable-background="new 0 0 20 20" xml:space="preserve">
<path fill="#F0F6FC" d="M17.607,12.289l-0.521,0.637l-0.772-0.633l0.396-0.484c-0.799-0.342-1.771-0.559-2.961-0.559
	c-1.188,0-2.156,0.216-2.954,0.555l0.399,0.488l-0.773,0.633l-0.524-0.642C8.06,13.489,7.5,15.419,7.5,16.25
	c0,1.25,1.25,1.25,1.25,1.25h10c0,0,1.25,0,1.25-1.25C20,15.42,19.441,13.493,17.607,12.289z M10.886,13.492l0.773-0.633
	l0.618,0.756l-0.772,0.633L10.886,13.492z M11.969,14.814l0.773-0.633l0.617,0.754l-0.772,0.633L11.969,14.814z M13.755,16.997
	l-0.703-0.86l0.703-0.684l0.703,0.684L13.755,16.997z M14.922,15.57l-0.773-0.633l0.619-0.756l0.772,0.633L14.922,15.57z
	 M16.004,14.248l-0.773-0.633l0.619-0.756l0.773,0.633L16.004,14.248z M2.5,6.875c0-1.727,1.398-3.125,3.125-3.125
	S8.75,5.148,8.75,6.875S7.352,10,5.625,10S2.5,8.602,2.5,6.875z M10,6.25c0-2.071,1.68-3.75,3.75-3.75s3.75,1.679,3.75,3.75
	S15.82,10,13.75,10S10,8.321,10,6.25z M6.25,11.25c-1.308,0-2.354,0.261-3.194,0.662l0.337,0.412L2.62,12.957l-0.434-0.53
	C0.516,13.637,0,15.451,0,16.25c0,1.25,1.25,1.25,1.25,1.25h5.271c-0.131-0.277-0.199-0.576-0.234-0.88l-0.333,0.407l-0.703-0.859
	l0.703-0.684L6.278,15.8c0.136-1.549,0.961-3.095,2.392-4.198C7.887,11.359,7.07,11.242,6.25,11.25z M3.084,13.523l0.773-0.633
	l0.619,0.756l-0.773,0.633L3.084,13.523z M4.785,15.602l-0.618-0.756l0.773-0.633l0.618,0.755L4.785,15.602z"/>
</svg>