<?xml version="1.0" encoding="utf-8"?>
<!-- Generator: Adobe Illustrator 16.0.0, SVG Export Plug-In . SVG Version: 6.00 Build 0)  -->
<!DOCTYPE svg PUBLIC "-//W3C//DTD SVG 1.1//EN" "http://www.w3.org/Graphics/SVG/1.1/DTD/svg11.dtd">
<svg version="1.1" id="Layer_1" xmlns="http://www.w3.org/2000/svg" xmlns:xlink="http://www.w3.org/1999/xlink" x="0px" y="0px"
	 width="20px" height="20px" viewBox="0 0 20 20" enable-background="new 0 0 20 20" xml:space="preserve">
<path fill-rule="evenodd" clip-rule="evenodd" fill="#F0F6FC" d="M5.358,8.571c0-0.108,0-0.19,0-0.273
	c0-2.377,0.002-4.754-0.002-7.132c0-0.35,0.1-0.649,0.361-0.887C5.949,0.068,6.228,0,6.534,0c1.885,0.002,3.771,0.001,5.656,0.001
	c0.436,0,0.871-0.002,1.307,0c0.699,0.005,1.145,0.454,1.146,1.154c0,2.377,0,4.754,0,7.132c0,0.083,0,0.167,0,0.281
	c0.184,0,0.355,0,0.529,0c0.063,0,0.127-0.003,0.189,0.003c0.217,0.022,0.354,0.172,0.344,0.377
	c-0.01,0.196-0.148,0.324-0.361,0.335c-0.043,0.002-0.084,0.001-0.127,0.001c-3.475,0-6.949,0-10.423,0
	c-0.049,0-0.099,0.002-0.147-0.001C4.434,9.27,4.299,9.135,4.294,8.938C4.291,8.742,4.42,8.586,4.627,8.575
	C4.859,8.561,5.091,8.571,5.358,8.571z M9.648,2.911c-0.063,0.034-0.1,0.054-0.136,0.074c-0.421,0.233-0.639,0.674-0.56,1.13
	c0.08,0.462,0.446,0.807,0.93,0.875C9.945,5,10.008,5.003,10.071,5.016c0.171,0.035,0.28,0.171,0.28,0.344
	c0,0.202-0.136,0.342-0.365,0.354C9.754,5.725,9.522,5.712,9.291,5.722c-0.218,0.009-0.349,0.143-0.354,0.34
	C8.931,6.269,9.064,6.409,9.29,6.426C9.399,6.434,9.51,6.427,9.646,6.427c0,0.126-0.003,0.222,0.001,0.318
	c0.01,0.25,0.134,0.389,0.347,0.392c0.219,0.004,0.353-0.142,0.361-0.399c0.004-0.119,0-0.237,0-0.356
	c0.066-0.037,0.122-0.065,0.174-0.099c0.396-0.249,0.57-0.609,0.521-1.072c-0.045-0.42-0.369-0.777-0.793-0.886
	c-0.088-0.022-0.181-0.023-0.271-0.036C9.828,4.266,9.708,4.191,9.663,4.03C9.597,3.798,9.748,3.591,9.999,3.58
	c0.231-0.01,0.464,0.002,0.695-0.006c0.236-0.009,0.377-0.157,0.371-0.37c-0.008-0.205-0.146-0.333-0.377-0.34
	c-0.104-0.003-0.207,0-0.333,0c0-0.135,0.006-0.247-0.002-0.357C10.337,2.284,10.19,2.144,9.99,2.149
	C9.798,2.155,9.662,2.292,9.649,2.505C9.641,2.638,9.648,2.771,9.648,2.911z M1.078,11.441c5.957,0,11.885,0,17.829,0
	c0.006,0.059,0.016,0.111,0.016,0.165c0,2.181,0.002,4.362,0,6.542c0,0.724-0.309,1.273-0.938,1.632
	C17.691,19.947,17.365,20,17.029,20c-1.293-0.002-2.588-0.001-3.883-0.001c-3.391,0-6.782-0.001-10.173,0.001
	c-0.637,0-1.167-0.221-1.553-0.74c-0.206-0.278-0.321-0.592-0.336-0.939c-0.003-0.076-0.007-0.154-0.007-0.231
	c0-2.139,0-4.277,0-6.416C1.078,11.603,1.078,11.533,1.078,11.441z M9.998,18.568c1.872,0,3.743,0,5.612-0.001
	c0.32,0,0.432-0.102,0.465-0.415c0.039-0.36,0.277-0.602,0.639-0.647c0.336-0.043,0.424-0.142,0.424-0.477
	c0.002-0.872,0.002-1.745,0-2.616c0-0.355-0.078-0.445-0.43-0.488c-0.34-0.042-0.592-0.296-0.631-0.635
	c-0.039-0.338-0.135-0.429-0.471-0.429c-3.734-0.001-7.47-0.001-11.205,0c-0.339,0-0.439,0.091-0.477,0.422
	c-0.039,0.351-0.293,0.604-0.647,0.643c-0.319,0.035-0.413,0.138-0.414,0.46c0,0.872,0,1.744,0,2.616
	c0,0.37,0.076,0.458,0.439,0.506c0.335,0.044,0.581,0.289,0.621,0.619c0.044,0.357,0.139,0.442,0.503,0.442
	C6.284,18.568,8.14,18.568,9.998,18.568z M15.555,7.88c0.811,0.163,1.148,1.113,0.613,1.742c-0.24,0.283-0.555,0.38-0.92,0.379
	C11.75,9.999,8.254,10,4.757,10c-0.063,0-0.126,0.001-0.189-0.003C4.05,9.96,3.619,9.538,3.582,9.035
	c-0.04-0.563,0.306-1.039,0.84-1.15c0.067-0.014,0.136-0.027,0.208-0.042c0-0.705,0-1.405,0-2.121c-0.082,0-0.151-0.004-0.22,0
	C3.657,5.776,3.131,6.159,2.836,6.846c-0.527,1.226-1.043,2.457-1.563,3.686c-0.023,0.055-0.037,0.111-0.058,0.174
	c5.867,0,11.711,0,17.557,0c-0.002-0.031,0.004-0.054-0.004-0.071c-0.555-1.306-1.104-2.615-1.668-3.916
	c-0.205-0.469-0.586-0.766-1.07-0.921c-0.213-0.068-0.434-0.103-0.674-0.058c0,0.629,0,1.248,0,1.865c0,0.077,0,0.153,0,0.236
	C15.432,7.855,15.492,7.868,15.555,7.88z M15.344,17.846c-3.549,0-7.141,0-10.741,0c-0.163-0.515-0.502-0.854-1.017-1.021
	c0-0.743,0-1.479,0-2.228c0.512-0.164,0.852-0.504,1.017-1.017c3.602,0,7.194,0,10.793,0c0.166,0.517,0.51,0.853,1.02,1.019
	c0,0.742,0,1.473,0,2.177c-0.221,0.147-0.455,0.258-0.629,0.431C15.613,17.379,15.5,17.613,15.344,17.846z M9.992,17.137
	c0.795,0.002,1.438-0.637,1.438-1.428c0.002-0.777-0.639-1.42-1.421-1.426c-0.787-0.006-1.439,0.643-1.438,1.43
	C8.572,16.494,9.211,17.135,9.992,17.137z M10.715,15.725c0.008-0.395-0.324-0.731-0.717-0.727c-0.392,0.004-0.71,0.323-0.711,0.711
	c-0.002,0.391,0.315,0.709,0.706,0.712C10.387,16.424,10.705,16.117,10.715,15.725z"/>
</svg>
