<?xml version="1.0" standalone="no"?>
<!DOCTYPE svg PUBLIC "-//W3C//DTD SVG 20010904//EN"
 "http://www.w3.org/TR/2001/REC-SVG-20010904/DTD/svg10.dtd">
<svg version="1.0" xmlns="http://www.w3.org/2000/svg"
 width="1280.000000pt" height="1229.000000pt" viewBox="0 0 1280.000000 1229.000000"
 preserveAspectRatio="xMidYMid meet">
<metadata>
Created by potrace 1.15, written by Peter Selinger 2001-2017
</metadata>
<g transform="translate(0.000000,1229.000000) scale(0.100000,-0.100000)"
fill="#000000" stroke="none">
<path d="M6215 12279 c-279 -40 -550 -196 -719 -413 -178 -228 -265 -514 -238
-787 12 -122 46 -256 89 -352 25 -55 25 -60 11 -85 -9 -15 -620 -1073 -1358
-2352 -738 -1279 -1354 -2345 -1368 -2368 l-25 -44 -786 786 -786 786 -518
-518 c-284 -284 -517 -524 -517 -532 0 -8 414 -429 919 -935 l919 -920 -794
-1375 c-438 -756 -799 -1383 -805 -1392 -7 -13 -2 -22 23 -39 l32 -23 84 89
c270 288 488 552 837 1010 321 422 410 522 512 571 45 22 63 26 121 22 57 -3
79 -10 132 -41 61 -37 64 -37 81 -20 32 34 190 266 286 422 53 86 98 158 100
161 2 2 889 -881 1971 -1963 1082 -1082 1974 -1967 1982 -1967 8 0 900 885
1982 1967 1082 1082 1969 1965 1971 1963 2 -3 47 -75 100 -161 96 -156 254
-388 286 -422 17 -17 20 -17 81 20 53 31 75 38 132 41 154 9 227 -60 633 -593
349 -458 567 -722 837 -1010 l84 -89 32 23 c25 17 30 26 23 39 -6 9 -367 636
-805 1392 l-794 1375 919 920 c505 506 919 927 919 935 0 8 -232 247 -515 530
l-515 515 -785 -785 c-491 -491 -788 -781 -794 -775 -5 6 -637 1098 -1404
2427 l-1396 2418 29 83 c84 241 79 514 -15 762 -97 258 -301 480 -552 600
-201 97 -431 134 -638 104z m719 -3604 c291 -503 532 -918 537 -921 5 -2 46
-9 93 -14 474 -54 938 -487 1463 -1365 169 -281 583 -1047 583 -1076 0 -16
-3190 -3209 -3205 -3209 -12 0 -3215 3201 -3215 3214 0 11 260 503 390 736
625 1124 1127 1639 1656 1700 47 5 88 12 93 14 5 3 246 418 537 921 291 503
531 915 534 915 3 0 243 -412 534 -915z"/>
<path d="M6197 7600 c-241 -30 -471 -104 -660 -212 -453 -258 -742 -699 -823
-1254 -19 -129 -21 -426 -4 -559 53 -426 226 -757 528 -1008 236 -197 517
-324 857 -388 139 -27 469 -37 612 -20 388 47 802 174 990 302 l41 29 5 587
c3 409 8 602 16 633 29 108 97 158 250 182 l84 14 1 42 1 42 -643 0 -643 0 3
-42 3 -43 110 -12 c176 -21 244 -52 284 -132 42 -82 46 -132 46 -657 l0 -500
-28 -43 c-51 -76 -192 -149 -362 -187 -97 -21 -361 -30 -479 -15 -325 41 -606
192 -795 426 -214 267 -321 623 -321 1070 0 478 132 908 359 1174 155 182 427
326 689 366 360 54 691 -48 935 -288 112 -111 196 -246 292 -469 l37 -88 59 0
59 0 -5 108 c-7 136 -35 867 -35 915 l0 37 -60 0 c-44 0 -60 -4 -60 -13 0 -8
-14 -33 -31 -56 -61 -85 -181 -112 -319 -72 -36 10 -121 35 -190 55 -195 58
-327 77 -545 81 -104 2 -221 0 -258 -5z"/>
</g>
</svg>
