<?xml version="1.0" encoding="utf-8"?>
<!-- Generator: Adobe Illustrator 16.0.0, SVG Export Plug-In . SVG Version: 6.00 Build 0)  -->
<!DOCTYPE svg PUBLIC "-//W3C//DTD SVG 1.1//EN" "http://www.w3.org/Graphics/SVG/1.1/DTD/svg11.dtd">
<svg version="1.1" id="Layer_1" xmlns="http://www.w3.org/2000/svg" xmlns:xlink="http://www.w3.org/1999/xlink" x="0px" y="0px"
	 width="20px" height="20px" viewBox="0 0 20 20" enable-background="new 0 0 20 20" xml:space="preserve">
<path fill="#F0F6FC" d="M13.75,7.5c0,2.07-1.68,3.75-3.75,3.75c-2.071,0-3.75-1.68-3.75-3.75
	c0-2.071,1.679-3.75,3.75-3.75C12.07,3.75,13.75,5.429,13.75,7.5 M17.5,0h-15C1.12,0,0,1.12,0,2.5v15C0,18.882,1.12,20,2.5,20h15
	c1.382,0,2.5-1.118,2.5-2.5v-15C20,1.12,18.882,0,17.5,0z M6.585,14.827l0.921-0.754l0.736,0.899l-0.92,0.754L6.585,14.827z
	 M7.874,16.4l0.922-0.754l0.734,0.898l-0.92,0.753L7.874,16.4z M10,18.999l-0.837-1.022L10,17.161l0.837,0.813L10,18.999z
	 M11.391,17.301l-0.921-0.754l0.734-0.898l0.922,0.754L11.391,17.301z M12.68,15.727l-0.921-0.752l0.736-0.9l0.921,0.754
	L12.68,15.727z M18.75,17.5c0,0.689-0.561,1.25-1.25,1.25V17.5c0-0.854-0.586-2.87-2.943-4.064l-0.59,0.717L13.046,13.4l0.349-0.426
	C12.47,12.686,11.359,12.5,10,12.5c-1.359,0-2.469,0.186-3.394,0.475L6.954,13.4l-0.921,0.752l-0.588-0.719
	C3.086,14.629,2.5,16.646,2.5,17.5v1.25c-0.691,0-1.25-0.561-1.25-1.25v-15c0-0.691,0.559-1.25,1.25-1.25h15
	c0.689,0,1.25,0.559,1.25,1.25V17.5z"/>
</svg>
