<?xml version="1.0" encoding="utf-8"?>
<!-- Generator: Adobe Illustrator 16.0.0, SVG Export Plug-In . SVG Version: 6.00 Build 0)  -->
<!DOCTYPE svg PUBLIC "-//W3C//DTD SVG 1.1//EN" "http://www.w3.org/Graphics/SVG/1.1/DTD/svg11.dtd">
<svg version="1.1" id="Layer_1" xmlns="http://www.w3.org/2000/svg" xmlns:xlink="http://www.w3.org/1999/xlink" x="0px" y="0px"
	 width="20px" height="20px" viewBox="0 0 20 20" enable-background="new 0 0 20 20" xml:space="preserve">
<path fill="#F0F6FC" d="M10,6.854l3.473,4.477l-3.467,3.461l-3.473-3.465L10,6.854z M20,3.816v13.749
	c0,0.091-0.02,0.179-0.057,0.263c-0.143,0.313-0.512,0.45-0.826,0.307c-1.104-0.498-2.881-1.1-4.604-1.272
	c-1.76-0.178-3.232,0.108-4.026,1.096c-0.029,0.035-0.061,0.068-0.098,0.096c-0.27,0.217-0.662,0.174-0.879-0.096
	c-0.791-0.986-2.267-1.273-4.027-1.096c-1.723,0.174-3.5,0.774-4.602,1.272c-0.081,0.037-0.169,0.058-0.258,0.058
	C0.281,18.189,0,17.91,0,17.564V3.816c0-0.245,0.144-0.468,0.367-0.57c1.188-0.541,3.099-1.188,4.992-1.38
	C6.983,1.702,8.77,1.859,10,2.919c1.23-1.06,3.016-1.218,4.643-1.054c1.89,0.192,3.801,0.84,4.99,1.38
	C19.857,3.348,20,3.571,20,3.816z M14.807,12.199c1.105-1.106,1.965-1.967,1.965-1.969c0-0.009-1.09-1.106-1.09-1.106l-1.689,1.687
	L9.996,4l-3.985,6.802L4.323,9.12c0,0-1.094,1.102-1.094,1.11c0,0.002,0.858,0.861,1.963,1.969l-1.709,2.922l0.058,0.064
	l2.026-2.613C7.521,14.529,9.994,17,10,17s2.48-2.471,4.436-4.428l2.024,2.613l0.06-0.064L14.807,12.199z"/>
</svg>
